<?xml version="1.0"?>
<svg xmlns="http://www.w3.org/2000/svg" height="100px" width="100px" fill="#000000" viewBox="0 0 64 64" x="0px" y="0px">
  <g>
    <path d="M3,62H61a1,1,0,0,0,1-1V42.874a1,1,0,0,0-1.372-.928,6.88,6.88,0,0,0-.955.5A2.947,2.947,0,0,1,58,43a7.843,7.843,0,0,1-3.3-.656A4.994,4.994,0,0,0,55.888,40H59a1,1,0,0,0,.949-.684l2-6A1.9,1.9,0,0,0,62,33V29a5.006,5.006,0,0,0-5-5H55a1,1,0,0,0-1,1v3H38V9.915C38,7.869,37.06,4,33.5,4S29,7.869,29,9.915V17H28a1,1,0,0,0-1,1v2H25V3a1,1,0,0,0-1-1H12a1,1,0,0,0-1,1V28H4.954a2.908,2.908,0,0,0-2.375,1.218,3.044,3.044,0,0,0-.429,2.724l1.886,5.8a8,8,0,0,0,4.439,5.138A8.97,8.97,0,0,1,7,43a5.938,5.938,0,0,1-3.514-.874A1,1,0,0,0,2,43V61A1,1,0,0,0,3,62ZM58.279,38H56V34h3.613ZM56,26h1a3,3,0,0,1,3,3v3H56V26Zm-2,4v9a2.982,2.982,0,0,1-1.093,2.288c-.271-.191-.542-.387-.818-.592a10.874,10.874,0,0,0-7.1-2.7A12.292,12.292,0,0,0,38,40.131V30ZM31,9.917C31,9.757,31.046,6,33.5,6S36,9.757,36,9.915V28H25V26h7a1,1,0,0,0,1-1V18a1,1,0,0,0-1-1H31ZM13,8H23v8H13ZM28,22a1,1,0,0,0,1-1V19h2v5H25V22ZM13,4H23V6H13Zm0,14H23V28H13ZM5.938,37.118l-1.886-5.8a1.023,1.023,0,0,1,.145-.929A.929.929,0,0,1,4.954,30H36V41.2a9.493,9.493,0,0,1-4,.8,8.1,8.1,0,0,1-5.435-1.821A10.094,10.094,0,0,0,19.99,38a10.836,10.836,0,0,0-7.09,2.7c-.47.349-.925.68-1.395.982C8.487,41.142,6.8,39.768,5.938,37.118ZM4,44.574A8.772,8.772,0,0,0,7,45a10.836,10.836,0,0,0,7.091-2.7c1.666-1.236,3.106-2.3,5.9-2.3a8.1,8.1,0,0,1,5.435,1.821A10.1,10.1,0,0,0,32,44a11.771,11.771,0,0,0,4-.648V52a.978.978,0,0,0,.07.344.647.647,0,0,0,.03.077c.01.021.015.044.026.065l.619,1.114A5.368,5.368,0,0,0,41.488,56h1.024a5.368,5.368,0,0,0,4.743-2.4l.154-.277L52.553,55.9A1,1,0,0,0,54,55V49a1,1,0,0,0-1.447-.9l-5.144,2.572-.154-.277A5.368,5.368,0,0,0,42.512,48H41.488A6.092,6.092,0,0,0,38,49.044V42.438c.347-.192.683-.387,1.005-.578A10.34,10.34,0,0,1,44.988,40c2.8,0,4.241,1.068,5.911,2.3A10.874,10.874,0,0,0,58,45a4.429,4.429,0,0,0,2-.456V60H4ZM38.144,52l.349-.628A3.428,3.428,0,0,1,41.488,50h1.024a3.428,3.428,0,0,1,2.995,1.372l.349.628-.349.628A3.428,3.428,0,0,1,42.512,54H41.488a3.428,3.428,0,0,1-2.995-1.372Zm11.092,0L52,50.618v2.764Z"/>
    <path d="M17,50c-.321,0-.471-.128-.9-.64A3.042,3.042,0,0,0,13.67,48a3.047,3.047,0,0,0-2.436,1.36c-.4.484-.562.64-.9.64s-.5-.156-.9-.64A3.047,3.047,0,0,0,7,48a1,1,0,0,0,0,2c.337,0,.5.156.9.64A3.047,3.047,0,0,0,10.335,52a3.049,3.049,0,0,0,2.436-1.359c.4-.485.562-.641.9-.641.321,0,.471.128.9.64A3.045,3.045,0,0,0,17,52a1,1,0,0,0,0-2Z"/>
    <path d="M33,56c-.321,0-.471-.128-.9-.64a2.86,2.86,0,0,0-4.87,0c-.4.484-.562.64-.9.64s-.5-.156-.9-.64A3.047,3.047,0,0,0,23,54a1,1,0,0,0,0,2c.337,0,.5.156.9.64a2.862,2.862,0,0,0,4.872,0c.4-.485.562-.641.9-.641.321,0,.471.128.9.64A3.045,3.045,0,0,0,33,58a1,1,0,0,0,0-2Z"/>
  </g>
</svg>