<svg xmlns="http://www.w3.org/2000/svg" fill="#00496C" viewBox="0 0 64 64" x="0px" y="0px"><g><path d="M2.758,34.97a8.835,8.835,0,0,1,3.087,1.984,22.818,22.818,0,0,0,12.9,5.716,13.432,13.432,0,0,0,8.836,8.237A1,1,0,0,0,28.993,50a1.013,1.013,0,0,0-.2-.6,17.048,17.048,0,0,1-2.432-6.455q1.5-.068,2.97-.213a9,9,0,0,0,4.153,5.13,1,1,0,0,0,.9.065l12-5a1,1,0,0,0,.062-1.818,9.625,9.625,0,0,1-2.172-1.589,74.933,74.933,0,0,0,8.718-3.4l7.56,3.78A1.011,1.011,0,0,0,61,40a1,1,0,0,0,.9-1.447C61.162,37.088,60,34.285,60,33c0-1.444,1.367-4.5,1.9-5.553a1,1,0,0,0-1.247-1.384l-7.8,2.928a15.9,15.9,0,0,1-5.769-1.235l1.706-2.131a1,1,0,0,0-.333-1.52c-1.958-.979-10.872-5.929-10.962-5.979a1,1,0,0,0-1.342.359L34.486,21.24c-.556-.238-1.129-.46-1.713-.671l2.185-7.282a1,1,0,0,0-1.183-1.262C26.034,13.811,21.683,17,19.352,19.452,8.782,21.517,2.489,30,2.191,30.412A1,1,0,0,0,2,31v3A1,1,0,0,0,2.758,34.97ZM25.746,47.922A11.062,11.062,0,0,1,21,42.89c.946.066,1.931.11,3,.11.115,0,.23,0,.345-.005A21.738,21.738,0,0,0,25.746,47.922Zm18.116-6.114L34.1,45.876a6.934,6.934,0,0,1-2.733-3.384,72.518,72.518,0,0,0,10.818-2.329A9.474,9.474,0,0,0,43.862,41.808Zm15.106-4.942L54,34.382V30.693l5.109-1.916A13.128,13.128,0,0,0,58,33,12.23,12.23,0,0,0,58.968,36.866ZM37.359,20.343c1.936,1.073,6.665,3.688,9.1,4.982l-1.275,1.592c-1.4-.686-2.79-1.48-4.2-2.293-1.476-.848-3.017-1.732-4.665-2.541ZM32.535,14.4l-1.667,5.557A25.068,25.068,0,0,0,24,19q-.609,0-1.2.031A27.61,27.61,0,0,1,32.535,14.4ZM4,31.34C5.267,29.744,12.723,21,24,21c6.659,0,11.4,2.724,15.982,5.357,3.871,2.225,7.54,4.334,12.018,4.612v3.4C49.28,35.63,36.945,41,24,41a30.481,30.481,0,0,1-9.575-1.323,8.019,8.019,0,0,0,3.659-1.864,6,6,0,0,0,1.8-3.414l6.765,2.538A1.026,1.026,0,0,0,27,37a1,1,0,0,0,1-1V28a1,1,0,0,0-1.352-.937l-8,3A1,1,0,0,0,18,31v2a4.364,4.364,0,0,1-1.29,3.36c-1.72,1.628-4.715,1.72-5.961,1.682a26.306,26.306,0,0,1-3.631-2.63A12.931,12.931,0,0,0,4,33.282Zm16,.967v-.614l6-2.25v5.114Z"></path><path d="M11,34a3,3,0,1,0-3-3A3,3,0,0,0,11,34Zm0-4a1,1,0,1,1-1,1A1,1,0,0,1,11,30Z"></path><path d="M24,25c4.486,0,9.113,1.646,16.5,5.868l.992-1.736C33.774,24.719,28.869,23,24,23c-5.217,0-10.3,3.014-10.515,3.143l1.029,1.715C14.562,27.829,19.346,25,24,25Z"></path><path d="M32.707,30.293l-1.414,1.414L33.586,34l-2.293,2.293,1.414,1.414,3-3a1,1,0,0,0,0-1.414Z"></path><path d="M37.707,31.293l-1.414,1.414L38.586,35l-2.293,2.293,1.414,1.414,3-3a1,1,0,0,0,0-1.414Z"></path><rect x="43" y="31" width="2" height="2"></rect><rect x="45" y="33" width="2" height="2"></rect></g></svg>