<svg height='100px' width='100px'  fill="#00496C" xmlns="http://www.w3.org/2000/svg" viewBox="0 0 64 64" x="0px" y="0px"><g><path d="M61.83,32.442C61.489,31.935,53.393,20,46.754,20h-.813A9.01,9.01,0,0,0,37,12H29a1,1,0,0,0-1,1,8.984,8.984,0,0,0,3.369,7.01c-.011,0-.023,0-.034,0-4.6.184-11.136,4.476-16.158,8.364A7.156,7.156,0,0,0,9.105,25H3a1,1,0,0,0-1,1,6.983,6.983,0,0,0,3.449,6A6.983,6.983,0,0,0,2,38a1,1,0,0,0,1,1H9.105a7.171,7.171,0,0,0,5.1-2.136c1.306,1.037,2.715,2.106,4.17,3.131A8.994,8.994,0,0,0,15,47a1,1,0,0,0,1,1h8a8.936,8.936,0,0,0,5.877-2.2c.271.053,1.405.186,1.456.188l.036,0A8.984,8.984,0,0,0,28,53a1,1,0,0,0,1,1h8a9.01,9.01,0,0,0,8.941-8h.813c6.639,0,14.735-11.935,15.076-12.442A1,1,0,0,0,61.83,32.442ZM30.071,14H37a7.011,7.011,0,0,1,6.929,6H41.716A6.143,6.143,0,0,0,36,16a1,1,0,0,0,0,2,3.934,3.934,0,0,1,3.473,2H37A7.011,7.011,0,0,1,30.071,14ZM13.944,34.485a1,1,0,0,0-.678.405A5.152,5.152,0,0,1,9.105,37h-5a5.089,5.089,0,0,1,5-4,1,1,0,1,0,0-2,5.089,5.089,0,0,1-5-4h5a5.118,5.118,0,0,1,4.786,3.274,1,1,0,0,0,1.557.431c6.969-5.53,12.675-8.619,16.066-8.7.035,0,.069,0,.1-.008H43.358a19.7,19.7,0,0,0,0,22H37.58c-5.151-9.08-.925-16.157-.731-16.472a1,1,0,0,0-1.7-1.058,14.529,14.529,0,0,0-1.472,3.6A3.88,3.88,0,0,0,33,30H30.2a7.376,7.376,0,0,1,1.5-2.294,1,1,0,0,0-1.415-1.413,8.574,8.574,0,0,0-2.2,3.819,3.982,3.982,0,0,0-.22,7.707,11.234,11.234,0,0,0,1.059,5.67c-3.571-1.142-8.565-4.207-14.23-8.79A.991.991,0,0,0,13.944,34.485ZM31.617,44c-.033,0-.066-.007-.1-.008A9.341,9.341,0,0,1,29.863,38H33c.1,0,.192-.021.288-.029A20.853,20.853,0,0,0,35.31,44ZM29,32h4a1.857,1.857,0,0,1,.255.034,18.383,18.383,0,0,0-.191,3.96c-.022,0-.042.006-.064.006H29a2,2,0,0,1,0-4ZM24,46H17.072a7,7,0,0,1,3.052-4.816,37.973,37.973,0,0,0,7.3,3.911A6.938,6.938,0,0,1,24,46Zm13,6H30.071A7.011,7.011,0,0,1,37,46h1.778c-.36.873-1.3,2-3.778,2a1,1,0,0,0,0,2c3.935,0,5.465-2.246,5.875-4h3.054A7.011,7.011,0,0,1,37,52Zm9.754-8h-.886A16.9,16.9,0,0,1,42,33a16.9,16.9,0,0,1,3.868-11h.886c4.382,0,10.551,7.475,13.032,11C57.305,36.525,51.136,44,46.754,44Z"></path><path d="M53,29a1,1,0,0,0-1,1v1a1,1,0,0,0,2,0V30A1,1,0,0,0,53,29Z"></path></g></svg>