<svg width="64" height="64" viewBox="0 0 64 64" fill="none" xmlns="http://www.w3.org/2000/svg">
<path d="M47.4999 19.9938C47.4999 19.9938 15.4999 7.50001 15.4999 17.9938C15.4999 28.4876 47 35 47 46.4514C47 57.9027 15.4999 44.4514 15.4999 44.4514" stroke="#4E61A5" stroke-width="3" stroke-linecap="round"/>
<path fill-rule="evenodd" clip-rule="evenodd" d="M47.5 7C40.5964 7 35 12.5964 35 19.5C35 26.4036 40.5964 32 47.5 32C54.4036 32 60 26.4036 60 19.5C60 12.5964 54.4036 7 47.5 7ZM47.25 13.25C43.9363 13.25 41.25 15.9363 41.25 19.25V19.75C41.25 23.0637 43.9363 25.75 47.25 25.75H47.75C51.0637 25.75 53.75 23.0637 53.75 19.75V19.25C53.75 15.9363 51.0637 13.25 47.75 13.25H47.25Z" fill="#FFCD83"/>
<path fill-rule="evenodd" clip-rule="evenodd" d="M15.5 57C22.4036 57 28 51.4036 28 44.5C28 37.5964 22.4036 32 15.5 32C8.59644 32 3 37.5964 3 44.5C3 51.4036 8.59644 57 15.5 57ZM15.75 50.75C19.0637 50.75 21.75 48.0637 21.75 44.75V44.25C21.75 40.9363 19.0637 38.25 15.75 38.25H15.25C11.9363 38.25 9.25 40.9363 9.25 44.25V44.75C9.25 48.0637 11.9363 50.75 15.25 50.75H15.75Z" fill="#FFCD83"/>
</svg>
