<svg width="1122" height="396" viewBox="0 0 1122 396" fill="none" xmlns="http://www.w3.org/2000/svg">
<path d="M1063 337C1063 337 317 443.5 176 354C35 264.5 396.5 154 433.5 46.5001C470.5 -60.9999 79 83.0001 79 83.0001" stroke="url(#paint0_linear)" stroke-width="12" stroke-linecap="round"/>
<path d="M1059.69 377.878C1059.99 377.901 1060.21 378.19 1060.14 378.49L1057.51 390.291C1057.38 390.873 1056.52 390.78 1056.52 390.184L1056.48 378.095C1056.48 377.788 1056.76 377.553 1057.06 377.595C1057.93 377.716 1058.8 377.811 1059.69 377.878Z" fill="white"/>
<path d="M1050.76 376.214C1051.05 376.303 1051.2 376.631 1051.07 376.91L1045.96 387.86C1045.71 388.4 1044.9 388.125 1045.02 387.543L1047.58 375.735C1047.65 375.435 1047.97 375.264 1048.25 375.371C1049.08 375.677 1049.91 375.958 1050.76 376.214Z" fill="white"/>
<path d="M1042.4 372.658C1042.67 372.808 1042.74 373.161 1042.56 373.405L1035.21 383.004C1034.85 383.478 1034.11 383.033 1034.36 382.492L1039.4 371.505C1039.53 371.225 1039.88 371.127 1040.14 371.294C1040.88 371.771 1041.63 372.226 1042.4 372.658Z" fill="white"/>
<path d="M1035 367.386C1035.23 367.59 1035.23 367.951 1035 368.149L1025.76 375.95C1025.3 376.335 1024.67 375.742 1025.03 375.267L1032.32 365.616C1032.51 365.371 1032.87 365.35 1033.08 365.568C1033.71 366.194 1034.35 366.8 1035 367.386Z" fill="white"/>
<path d="M1028.91 360.653C1029.09 360.902 1029.01 361.254 1028.74 361.397L1018.04 367.028C1017.51 367.306 1017.02 366.593 1017.48 366.205L1026.67 358.351C1026.9 358.152 1027.26 358.208 1027.42 358.467C1027.89 359.212 1028.39 359.941 1028.91 360.653Z" fill="white"/>
<path d="M1024.39 352.768C1024.52 353.05 1024.36 353.377 1024.07 353.458L1012.41 356.655C1011.84 356.813 1011.52 356.013 1012.05 355.732L1022.7 350.04C1022.98 349.895 1023.31 350.027 1023.42 350.316C1023.72 351.146 1024.04 351.964 1024.39 352.768Z" fill="white"/>
<path d="M1021.69 344.096C1021.75 344.398 1021.53 344.683 1021.23 344.699L1009.16 345.317C1008.56 345.347 1008.42 344.497 1008.99 344.336L1020.63 341.066C1020.93 340.983 1021.23 341.184 1021.27 341.489C1021.38 342.367 1021.53 343.236 1021.69 344.096Z" fill="white"/>
<path d="M1020.92 335.047C1020.92 335.354 1020.64 335.586 1020.34 335.535L1008.41 333.542C1007.82 333.444 1007.87 332.584 1008.46 332.55L1020.53 331.858C1020.84 331.841 1021.09 332.101 1021.06 332.407C1020.99 333.28 1020.94 334.16 1020.92 335.047Z" fill="white"/>
<path d="M1022.1 326.038C1022.03 326.337 1021.71 326.505 1021.42 326.39L1010.21 321.883C1009.66 321.661 1009.89 320.831 1010.48 320.925L1022.41 322.844C1022.71 322.892 1022.9 323.201 1022.81 323.494C1022.55 324.331 1022.31 325.18 1022.1 326.038Z" fill="white"/>
<path d="M1025.2 317.499C1025.06 317.775 1024.71 317.869 1024.46 317.696L1014.48 310.884C1013.99 310.548 1014.39 309.787 1014.94 310.006L1026.19 314.445C1026.47 314.558 1026.59 314.9 1026.44 315.167C1026 315.929 1025.59 316.707 1025.2 317.499Z" fill="white"/>
<path d="M1030.06 309.829C1029.87 310.07 1029.51 310.087 1029.3 309.863L1021.01 301.059C1020.6 300.625 1021.16 299.968 1021.65 300.301L1031.68 307.058C1031.94 307.229 1031.98 307.588 1031.77 307.816C1031.18 308.469 1030.61 309.14 1030.06 309.829Z" fill="white"/>
<path d="M1036.46 303.379C1036.22 303.573 1035.86 303.512 1035.7 303.249L1029.5 292.868C1029.2 292.356 1029.88 291.835 1030.29 292.266L1038.63 301.019C1038.85 301.241 1038.81 301.6 1038.56 301.778C1037.84 302.29 1037.14 302.824 1036.46 303.379Z" fill="white"/>
<path d="M1044.08 298.447C1043.81 298.585 1043.48 298.449 1043.38 298.158L1039.55 286.694C1039.37 286.128 1040.15 285.766 1040.46 286.276L1046.72 296.611C1046.88 296.873 1046.76 297.216 1046.48 297.336C1045.67 297.682 1044.87 298.052 1044.08 298.447Z" fill="white"/>
<path d="M1052.6 295.276C1052.3 295.352 1052 295.147 1051.97 294.842L1050.7 282.825C1050.64 282.232 1051.48 282.047 1051.67 282.611L1055.56 294.053C1055.66 294.344 1055.48 294.655 1055.18 294.711C1054.31 294.873 1053.45 295.062 1052.6 295.276Z" fill="white"/>
<path d="M1061.59 294.02C1061.28 294.03 1061.04 293.767 1061.07 293.461L1062.42 281.443C1062.48 280.85 1063.34 280.85 1063.41 281.443L1064.75 293.461C1064.79 293.767 1064.54 294.03 1064.24 294.02C1063.8 294.007 1063.36 294 1062.91 294C1062.47 294 1062.03 294.007 1061.59 294.02Z" fill="white"/>
<path d="M1070.65 294.711C1070.35 294.655 1070.16 294.344 1070.26 294.053L1074.16 282.611C1074.35 282.047 1075.19 282.232 1075.13 282.825L1073.86 294.842C1073.82 295.147 1073.53 295.352 1073.23 295.276C1072.38 295.062 1071.52 294.873 1070.65 294.711Z" fill="white"/>
<path d="M1079.35 297.336C1079.06 297.216 1078.95 296.873 1079.11 296.611L1085.37 286.276C1085.68 285.766 1086.46 286.128 1086.27 286.694L1082.45 298.158C1082.35 298.449 1082.02 298.585 1081.74 298.447C1080.96 298.052 1080.16 297.682 1079.35 297.336Z" fill="white"/>
<path d="M1087.27 301.778C1087.02 301.6 1086.98 301.241 1087.19 301.019L1095.53 292.266C1095.95 291.835 1096.63 292.356 1096.33 292.868L1090.12 303.249C1089.97 303.512 1089.61 303.573 1089.37 303.379C1088.69 302.824 1087.99 302.29 1087.27 301.778Z" fill="white"/>
<path d="M1094.05 307.816C1093.85 307.588 1093.89 307.229 1094.14 307.058L1104.17 300.301C1104.67 299.968 1105.23 300.625 1104.82 301.059L1096.53 309.863C1096.32 310.087 1095.96 310.07 1095.77 309.829C1095.22 309.14 1094.64 308.469 1094.05 307.816Z" fill="white"/>
<path d="M1099.39 315.167C1099.24 314.9 1099.35 314.558 1099.64 314.445L1110.88 310.006C1111.44 309.787 1111.84 310.548 1111.35 310.884L1101.37 317.696C1101.11 317.869 1100.77 317.775 1100.63 317.499C1100.24 316.707 1099.83 315.929 1099.39 315.167Z" fill="white"/>
<path d="M1103.02 323.494C1102.93 323.201 1103.12 322.893 1103.42 322.844L1115.35 320.925C1115.94 320.831 1116.17 321.661 1115.62 321.883L1104.4 326.39C1104.12 326.505 1103.8 326.337 1103.73 326.038C1103.52 325.18 1103.28 324.331 1103.02 323.494Z" fill="white"/>
<path d="M1104.76 332.407C1104.74 332.101 1104.99 331.841 1105.29 331.858L1117.36 332.55C1117.96 332.584 1118.01 333.444 1117.42 333.542L1105.49 335.535C1105.19 335.586 1104.91 335.354 1104.9 335.047C1104.88 334.16 1104.84 333.28 1104.76 332.407Z" fill="white"/>
<path d="M1104.56 341.489C1104.6 341.184 1104.9 340.983 1105.19 341.066L1116.83 344.336C1117.41 344.497 1117.27 345.347 1116.67 345.317L1104.6 344.699C1104.29 344.683 1104.07 344.398 1104.13 344.096C1104.3 343.236 1104.44 342.367 1104.56 341.489Z" fill="white"/>
<path d="M1102.41 350.316C1102.52 350.027 1102.85 349.895 1103.12 350.04L1113.78 355.732C1114.31 356.013 1113.99 356.813 1113.41 356.655L1101.76 353.458C1101.46 353.377 1101.31 353.05 1101.43 352.768C1101.78 351.964 1102.11 351.146 1102.41 350.316Z" fill="white"/>
<path d="M1098.41 358.467C1098.57 358.208 1098.93 358.152 1099.16 358.351L1108.35 366.205C1108.8 366.593 1108.32 367.306 1107.79 367.028L1097.09 361.397C1096.82 361.254 1096.74 360.902 1096.92 360.653C1097.44 359.941 1097.93 359.212 1098.41 358.467Z" fill="white"/>
<path d="M1092.74 365.568C1092.96 365.35 1093.32 365.371 1093.5 365.616L1100.79 375.267C1101.15 375.742 1100.53 376.335 1100.07 375.95L1090.83 368.149C1090.6 367.951 1090.59 367.59 1090.82 367.386C1091.48 366.8 1092.12 366.194 1092.74 365.568Z" fill="white"/>
<path d="M1085.69 371.294C1085.95 371.127 1086.3 371.225 1086.42 371.505L1091.47 382.492C1091.72 383.033 1090.98 383.478 1090.61 383.004L1083.27 373.405C1083.08 373.161 1083.16 372.808 1083.43 372.658C1084.2 372.226 1084.95 371.771 1085.69 371.294Z" fill="white"/>
<path d="M1077.57 375.371C1077.86 375.264 1078.18 375.435 1078.24 375.735L1080.8 387.543C1080.93 388.125 1080.11 388.4 1079.86 387.86L1074.76 376.91C1074.63 376.631 1074.78 376.303 1075.07 376.214C1075.92 375.958 1076.75 375.677 1077.57 375.371Z" fill="white"/>
<path d="M1068.77 377.595C1069.07 377.553 1069.34 377.788 1069.34 378.095L1069.31 390.184C1069.3 390.78 1068.45 390.873 1068.32 390.291L1065.68 378.49C1065.62 378.19 1065.83 377.901 1066.14 377.878C1067.02 377.811 1067.9 377.716 1068.77 377.595Z" fill="white"/>
<path d="M1041.26 328.483C1042.92 323.651 1046.15 319.511 1050.43 316.717C1054.71 313.923 1059.8 312.634 1064.89 313.055C1069.99 313.475 1074.8 315.58 1078.56 319.038C1082.32 322.496 1084.83 327.109 1085.68 332.15C1086.53 337.19 1085.68 342.37 1083.26 346.871C1080.84 351.373 1076.98 354.94 1072.31 357.009C1067.64 359.078 1062.41 359.53 1057.45 358.296C1052.49 357.061 1048.08 354.21 1044.92 350.191" stroke="white" stroke-width="3" stroke-linecap="round"/>
<path opacity="0.5" d="M136.387 93.0586C134.214 106.075 127.767 117.996 118.065 126.94C108.362 135.885 95.9567 141.342 82.8071 142.451C69.6576 143.559 56.5134 140.256 45.4502 133.063C34.387 125.869 26.0352 115.195 21.7138 102.727C17.3923 90.2584 17.3473 76.7056 21.586 64.2086C25.8247 51.7117 34.1054 40.9828 45.1207 33.7161C56.1359 26.4495 69.2579 23.0592 82.4145 24.0806C95.5711 25.102 108.013 30.4769 117.774 39.3565" stroke="url(#paint1_radial)" stroke-width="20"/>
<path fill-rule="evenodd" clip-rule="evenodd" d="M77.4375 32C105.915 32 129 55.0853 129 83.5625C129 112.04 105.915 135.125 77.4375 135.125C48.9603 135.125 25.875 112.04 25.875 83.5625C25.875 55.0853 48.9603 32 77.4375 32ZM78.4688 57.7812C92.1378 57.7812 103.219 68.8622 103.219 82.5312V84.5937C103.219 98.2628 92.1378 109.344 78.4688 109.344H76.4062C62.7372 109.344 51.6562 98.2628 51.6562 84.5937V82.5312C51.6562 68.8622 62.7372 57.7812 76.4062 57.7812H78.4688Z" fill="#FFCD83"/>
<defs>
<linearGradient id="paint0_linear" x1="675" y1="286.5" x2="254.001" y2="80.9997" gradientUnits="userSpaceOnUse">
<stop stop-color="#FFCD83"/>
<stop offset="1" stop-color="white" stop-opacity="0.85"/>
</linearGradient>
<radialGradient id="paint1_radial" cx="0" cy="0" r="1" gradientUnits="userSpaceOnUse" gradientTransform="translate(77 83) rotate(-90) scale(80 78.4379)">
<stop stop-color="white"/>
<stop offset="0.716994" stop-color="white" stop-opacity="0.84"/>
<stop offset="1" stop-color="white" stop-opacity="0"/>
</radialGradient>
</defs>
</svg>
