<svg width="1128" height="405" viewBox="0 0 1128 405" fill="none" xmlns="http://www.w3.org/2000/svg">
<path fill-rule="evenodd" clip-rule="evenodd" d="M76.75 10.0005C115.479 10.0005 146.875 41.3965 146.875 80.1255V86.7505C146.875 125.479 115.479 156.875 76.75 156.875H70.125C31.396 156.875 0 125.479 0 86.7505V80.1255C0 41.3965 31.396 10.0005 70.125 10.0005H76.75ZM85.4062 46.7192C99.0753 46.7192 110.156 57.8002 110.156 71.4692V95.4067C110.156 109.076 99.0753 120.157 85.4063 120.157H61.4688C47.7997 120.157 36.7188 109.076 36.7188 95.4067V71.4692C36.7188 57.8002 47.7997 46.7192 61.4688 46.7192H85.4062Z" fill="url(#paint0_radial)"/>
<path fill-rule="evenodd" clip-rule="evenodd" d="M73.4375 31.8754C101.915 31.8754 125 54.9607 125 83.4379C125 111.915 101.915 135 73.4375 135C44.9603 135 21.875 111.915 21.875 83.4379C21.875 54.9607 44.9603 31.8754 73.4375 31.8754ZM74.4688 57.6566C88.1378 57.6566 99.2188 68.7376 99.2188 82.4066V84.4691C99.2188 98.1382 88.1378 109.219 74.4688 109.219H72.4062C58.7372 109.219 47.6563 98.1382 47.6562 84.4691V82.4066C47.6562 68.7376 58.7372 57.6566 72.4062 57.6566H74.4688Z" fill="#FFCD83"/>
<path d="M1057.5 338.5C1057.5 338.5 313 443.5 172 354C31 264.5 392.5 154 429.5 46.5C466.5 -61 75 83 75 83" stroke="url(#paint1_linear)" stroke-width="12" stroke-linecap="round"/>
<path fill-rule="evenodd" clip-rule="evenodd" d="M1059 404.876C1020.89 404.876 990 373.984 990 335.876C990 297.768 1020.89 266.876 1059 266.876C1097.11 266.876 1128 297.768 1128 335.876C1128 373.984 1097.11 404.876 1059 404.876ZM1057.53 362.095C1043.86 362.095 1032.78 351.014 1032.78 337.345V335.282C1032.78 321.613 1043.86 310.532 1057.53 310.532H1059.59C1073.26 310.532 1084.34 321.613 1084.34 335.282V337.345C1084.34 351.014 1073.26 362.095 1059.59 362.095H1057.53Z" fill="url(#paint2_radial)"/>
<path fill-rule="evenodd" clip-rule="evenodd" d="M1058.56 387.875C1030.09 387.875 1007 364.79 1007 336.313C1007 307.836 1030.09 284.75 1058.56 284.75C1087.04 284.75 1110.12 307.836 1110.12 336.313C1110.12 364.79 1087.04 387.875 1058.56 387.875ZM1057.53 362.094C1043.86 362.094 1032.78 351.013 1032.78 337.344V335.282C1032.78 321.613 1043.86 310.532 1057.53 310.532H1059.59C1073.26 310.532 1084.34 321.613 1084.34 335.282V337.344C1084.34 351.013 1073.26 362.094 1059.59 362.094H1057.53Z" fill="white"/>
<defs>
<radialGradient id="paint0_radial" cx="0" cy="0" r="1" gradientUnits="userSpaceOnUse" gradientTransform="translate(73.4375 83.438) rotate(-9.96137) scale(97.9136 78.7917)">
<stop stop-color="white"/>
<stop offset="1" stop-color="white" stop-opacity="0"/>
</radialGradient>
<linearGradient id="paint1_linear" x1="671" y1="286.5" x2="250.001" y2="80.9996" gradientUnits="userSpaceOnUse">
<stop stop-color="#FFCD83"/>
<stop offset="1" stop-color="white" stop-opacity="0.85"/>
</linearGradient>
<radialGradient id="paint2_radial" cx="0" cy="0" r="1" gradientUnits="userSpaceOnUse" gradientTransform="translate(1059 335.876) rotate(-90) scale(107.5)">
<stop stop-color="white"/>
<stop offset="1" stop-color="white" stop-opacity="0"/>
</radialGradient>
</defs>
</svg>
