<svg width="80" height="81" viewBox="0 0 80 81" fill="none" xmlns="http://www.w3.org/2000/svg">
<path fill-rule="evenodd" clip-rule="evenodd" d="M73.1601 18.3659C66.4572 7.82455 54.7343 -0.827361 37.0543 0.398567C32.431 0.719052 27.1726 2.09622 24.0493 3.47859C21.5392 4.58969 18.6942 6.25413 16.349 7.92765C10.5128 12.0926 5.78152 18.1145 3.00184 25.0396C2.84568 25.4286 2.67842 25.825 2.50952 26.2254C2.05282 27.3078 1.58413 28.4187 1.29059 29.4886C-0.42294 35.7363 -0.281568 43.0181 0.948361 48.6537C4.02172 62.7363 12.2807 70.8567 23.0225 76.546C32.6679 81.6547 47.3937 81.5096 57.9307 76.2038C64.2342 73.0297 69.2681 68.1958 73.1601 62.3431C76.9468 56.6489 79.85 48.8883 79.8337 39.9267C79.8185 31.6788 76.521 23.6513 73.1601 18.3659ZM40.3361 71.1776C57.0454 71.1776 70.5911 57.6328 70.5911 40.9232C70.5911 24.2141 57.0452 10.6682 40.3361 10.6682C23.6268 10.6682 10.0813 24.2141 10.0813 40.9232C10.0813 57.6328 23.6268 71.1776 40.3361 71.1776Z" fill="white"/>
<path d="M42.1658 77.2081L77.1269 42.2478" stroke="white" stroke-width="0.677372"/>
<path d="M39.1096 74.4395L74.2231 39.3267" stroke="white" stroke-width="0.677372"/>
<path d="M36.0532 71.671L71.3194 36.4053" stroke="white" stroke-width="0.677372"/>
<path d="M32.9968 68.9023L68.4156 33.4841" stroke="white" stroke-width="0.677372"/>
<path d="M29.9404 66.1336L65.5118 30.5627" stroke="white" stroke-width="0.677372"/>
<path d="M26.884 63.3657L62.6079 27.6416" stroke="white" stroke-width="0.677372"/>
<path d="M23.8276 60.5965L59.7042 24.7205" stroke="white" stroke-width="0.677372"/>
<path d="M20.7712 57.828L56.8002 21.7993" stroke="white" stroke-width="0.677372"/>
<path d="M17.7148 55.0592L53.8957 18.8779" stroke="white" stroke-width="0.677372"/>
<path d="M14.6584 52.2905L50.9926 15.9568" stroke="white" stroke-width="0.677372"/>
<path d="M11.6021 49.5221L48.0887 13.0356" stroke="white" stroke-width="0.677372"/>
<path d="M8.54565 46.7534L45.185 10.1143" stroke="white" stroke-width="0.677372"/>
<path d="M5.48926 43.9847L42.2812 7.19312" stroke="white" stroke-width="0.677372"/>
<path d="M2.43286 41.2161L39.3774 4.27197" stroke="white" stroke-width="0.677372"/>
<path d="M2.4209 41.5696L38.0806 77.2309" stroke="white" stroke-width="0.677372"/>
<path d="M5.31274 38.6362L41.0418 74.367" stroke="white" stroke-width="0.677372"/>
<path d="M8.20459 35.7031L44.003 71.5031" stroke="white" stroke-width="0.677372"/>
<path d="M11.0964 32.77L46.9643 68.6395" stroke="white" stroke-width="0.677372"/>
<path d="M13.988 29.8367L49.9252 65.7753" stroke="white" stroke-width="0.677372"/>
<path d="M16.8799 26.9036L52.8867 62.9116" stroke="white" stroke-width="0.677372"/>
<path d="M19.7717 23.9705L55.8479 60.0478" stroke="white" stroke-width="0.677372"/>
<path d="M22.6636 21.0371L58.8092 57.1837" stroke="white" stroke-width="0.677372"/>
<path d="M25.5554 18.104L61.7706 54.32" stroke="white" stroke-width="0.677372"/>
<path d="M28.4473 15.1709L64.7316 51.4559" stroke="white" stroke-width="0.677372"/>
<path d="M31.3391 12.2375L67.693 48.5922" stroke="white" stroke-width="0.677372"/>
<path d="M34.2307 9.30444L70.6541 45.7283" stroke="white" stroke-width="0.677372"/>
<path d="M37.1226 6.37134L73.6152 42.8646" stroke="white" stroke-width="0.677372"/>
<path d="M40.0146 3.43823L76.5767 40.0007" stroke="white" stroke-width="0.677372"/>
<path d="M65.4598 14.4302C62.3132 11.2836 58.4447 8.44819 53.8237 6.72987C49.0339 4.94873 43.6157 3.44739 37.2253 3.99194C27.0458 4.85963 19.8985 9.42686 14.4665 14.7724C10.6618 18.5165 7.79983 23.1045 5.91066 28.4618C3.13685 36.328 3.30516 45.6128 6.424 53.6161C9.08431 60.4429 13.4385 65.9492 19.6001 70.2146C25.3924 74.2246 33.7058 77.3346 43.0431 76.546C54.4158 75.5855 62.7369 69.7508 68.1974 63.0277C69.5946 61.3078 70.9838 59.3637 71.7908 57.0386C72.5816 55.3634 72.9686 54.2246 73.331 53.6163C74.8476 50.2178 75.6512 46.632 75.8976 42.6648C76.6558 30.4626 71.961 20.9315 65.4598 14.4302ZM62.1081 51.6065C62.0863 51.6529 62.0669 51.6962 62.0442 51.744C61.4801 53.3585 60.5082 54.7084 59.5314 55.9029C55.7125 60.5713 49.8938 64.6228 41.9407 65.2899C35.4108 65.8373 29.5971 63.6779 25.5466 60.8934C22.0267 58.4737 19.3511 55.4785 17.4748 51.8789C17.3604 51.6623 16.2708 49.1519 16.2676 49.0414C14.7812 44.431 14.6522 37.0176 16.1778 32.5688C17.1959 29.5996 18.8928 26.387 21.1402 23.8418C24.2432 20.3274 27.3484 18.0754 32.2629 16.4837C34.5068 15.7568 36.5156 15.017 39.2786 14.9437C46.0165 14.7643 52.8776 17.7895 56.5615 21.1038C59.947 24.1496 63.8053 30.0825 64.7753 35.6488C65.7736 41.3779 64.7082 46.9716 62.1081 51.6065Z" fill="#29272A"/>
<path d="M50.397 57.1022C48.7379 57.1022 47.2819 56.0515 46.7738 54.4876L44.9259 48.8571H35.6814L33.9644 54.4363C33.4461 56.0306 31.9791 57.0978 30.3114 57.0978C29.911 57.0978 29.5133 57.0345 29.1294 56.9099C27.136 56.3115 26.0044 54.166 26.6151 52.1299L34.418 27.4136C34.9246 25.8413 36.4162 24.7446 38.0456 24.7446H42.1947C43.8333 24.7446 45.3248 25.8227 45.8216 27.3663L54.0276 52.0734C54.6838 54.0934 53.5972 56.2619 51.6068 56.9098C51.2133 57.0375 50.8064 57.1022 50.397 57.1022Z" fill="white" stroke="#29272A" stroke-width="2.03212"/>
<path d="M19.7532 16.8675L19.7434 16.8543C18.7704 15.5207 19.0559 13.6552 20.489 12.6093C21.922 11.5635 23.7629 11.8571 24.736 13.1905L24.7457 13.2037C25.7188 14.5373 25.4332 16.403 24.0002 17.4487C22.5671 18.4945 20.7262 18.201 19.7532 16.8675ZM23.4417 14.1757L23.432 14.1625C22.9431 13.4925 22.0327 13.262 21.3229 13.78C20.6197 14.2932 20.565 15.2074 21.0539 15.8776L21.0636 15.8908C21.5527 16.5609 22.4629 16.7913 23.1662 16.2781C23.8761 15.7601 23.9308 14.8459 23.4417 14.1757Z" fill="white"/>
<path d="M29.1347 8.12691L30.5971 7.65771L34.6967 12.4235L33.07 12.9454L32.3576 12.0958L30.246 12.7733L30.1686 13.8764L28.5732 14.3883L29.1347 8.12691ZM31.5407 11.0554L30.4313 9.69479L30.3128 11.4494L31.5407 11.0554Z" fill="white"/>
<path d="M37.3304 9.56069L37.3432 6.33276L38.9612 6.33917L38.9485 9.53429C38.9452 10.3638 39.3625 10.7597 40.0032 10.7623C40.6439 10.7649 41.0643 10.3888 41.0674 9.5839L41.0803 6.34783L42.6983 6.35424L42.6857 9.54109C42.6783 11.3973 41.6156 12.2063 39.9811 12.1998C38.3466 12.1931 37.3233 11.3594 37.3304 9.56069Z" fill="white"/>
<path d="M48.5418 8.99661L46.8923 8.49314L47.2999 7.15771L52.1229 8.62971L51.7154 9.96513L50.0659 9.4618L48.7952 13.625L47.2714 13.16L48.5418 8.99661Z" fill="white"/>
<path d="M56.4311 10.4929L57.7576 11.3757L56.5655 13.1671L58.2681 14.3002L59.4603 12.5087L60.7868 13.3914L57.6015 18.1779L56.2749 17.2951L57.4854 15.4763L55.7827 14.3431L54.5723 16.162L53.2458 15.2793L56.4311 10.4929Z" fill="white"/>
<path d="M61.117 62.8169L61.1271 62.8298C62.1506 64.1252 61.9364 66.0006 60.5443 67.1004C59.1522 68.2002 57.3013 67.9772 56.2778 66.6818L56.2677 66.6688C55.2442 65.3733 55.4585 63.498 56.8505 62.3982C58.2426 61.2986 60.0935 61.5214 61.117 62.8169ZM57.5335 65.6479L57.5436 65.6608C58.0579 66.3118 58.9764 66.5073 59.666 65.9625C60.3492 65.4228 60.369 64.507 59.8546 63.8561L59.8445 63.8431C59.3304 63.1922 58.4117 62.9966 57.7286 63.5364C57.0389 64.0812 57.0192 64.9969 57.5335 65.6479Z" fill="white"/>
<path d="M52.1228 71.9257L50.6824 72.4588L46.377 67.8781L47.9791 67.285L48.7284 68.1025L50.8081 67.3327L50.8368 66.2274L52.4082 65.6458L52.1228 71.9257ZM49.5902 69.106L50.7584 70.4164L50.7996 68.6583L49.5902 69.106Z" fill="white"/>
<path d="M43.878 70.8326L44.0203 74.0574L42.4038 74.1287L42.2629 70.9368C42.2263 70.1081 41.7905 69.7328 41.1504 69.761C40.5104 69.7893 40.1085 70.1853 40.144 70.9894L40.2867 74.2222L38.6703 74.2936L38.5297 71.1099C38.4478 69.2556 39.4705 68.3964 41.1034 68.3244C42.7363 68.2522 43.7986 69.0356 43.878 70.8326Z" fill="white"/>
<path d="M32.6461 71.8871L34.3115 72.3367L33.9476 73.6848L29.0781 72.3705L29.4421 71.0222L31.1075 71.4718L32.242 67.2686L33.7806 67.6839L32.6461 71.8871Z" fill="white"/>
<path d="M24.7745 70.7156L23.4076 69.8965L24.5139 68.0505L22.7597 66.999L21.6534 68.845L20.2866 68.0258L23.2426 63.094L24.6094 63.9133L23.4861 65.7874L25.2405 66.8389L26.3637 64.9648L27.7305 65.784L24.7745 70.7156Z" fill="white"/>
</svg>
