<svg width="601" height="601" viewBox="0 0 601 601" fill="none" xmlns="http://www.w3.org/2000/svg">
<circle cx="300" cy="300.282" r="283.626" stroke="white" stroke-width="0.599" stroke-dasharray="19.17 19.17"/>
<rect x="129.884" y="125.973" width="76.672" height="76.672" rx="2.396" fill="white" fill-opacity="0.2"/>
<path d="M154.266 168.726V158.662H155.79V168.726H154.266ZM157.832 168.726V158.662H161.095C162.274 158.662 163.242 158.868 163.999 159.281C164.766 159.693 165.331 160.277 165.695 161.034C166.069 161.782 166.256 162.673 166.256 163.708C166.256 164.734 166.069 165.625 165.695 166.382C165.331 167.13 164.766 167.71 163.999 168.122C163.242 168.524 162.274 168.726 161.095 168.726H157.832ZM159.355 167.432H161.037C161.948 167.432 162.667 167.283 163.194 166.986C163.731 166.689 164.114 166.262 164.344 165.707C164.584 165.151 164.703 164.485 164.703 163.708C164.703 162.932 164.584 162.261 164.344 161.696C164.114 161.13 163.731 160.699 163.194 160.402C162.667 160.095 161.948 159.942 161.037 159.942H159.355V167.432ZM167.94 168.726V158.662H171.462C172.248 158.662 172.899 158.797 173.417 159.065C173.935 159.324 174.318 159.683 174.567 160.143C174.826 160.594 174.955 161.106 174.955 161.681C174.955 162.228 174.831 162.731 174.581 163.191C174.342 163.641 173.963 164.001 173.446 164.269C172.928 164.537 172.267 164.672 171.462 164.672H169.464V168.726H167.94ZM169.464 163.421H171.39C172.109 163.421 172.622 163.267 172.928 162.961C173.244 162.645 173.403 162.218 173.403 161.681C173.403 161.125 173.244 160.694 172.928 160.388C172.622 160.071 172.109 159.913 171.39 159.913H169.464V163.421ZM181.119 168.726V160.388L179.494 160.761V159.64L181.722 158.662H182.7V168.726H181.119Z" fill="white"/>
<rect x="261.664" y="88.2363" width="76.672" height="76.672" rx="2.396" fill="white" fill-opacity="0.2"/>
<path d="M284.249 130.988V120.925H285.773V130.988H284.249ZM287.815 130.988V120.925H291.078C292.257 120.925 293.225 121.131 293.982 121.543C294.749 121.955 295.314 122.54 295.678 123.297C296.052 124.045 296.239 124.936 296.239 125.971C296.239 126.997 296.052 127.888 295.678 128.645C295.314 129.393 294.749 129.972 293.982 130.384C293.225 130.787 292.257 130.988 291.078 130.988H287.815ZM289.339 129.694H291.021C291.931 129.694 292.65 129.546 293.177 129.249C293.714 128.952 294.097 128.525 294.327 127.969C294.567 127.413 294.686 126.747 294.686 125.971C294.686 125.195 294.567 124.524 294.327 123.958C294.097 123.393 293.714 122.962 293.177 122.665C292.65 122.358 291.931 122.205 291.021 122.205H289.339V129.694ZM297.923 130.988V120.925H301.445C302.231 120.925 302.883 121.059 303.4 121.328C303.918 121.586 304.301 121.946 304.55 122.406C304.809 122.856 304.938 123.369 304.938 123.944C304.938 124.49 304.814 124.993 304.565 125.454C304.325 125.904 303.946 126.263 303.429 126.532C302.911 126.8 302.25 126.934 301.445 126.934H299.447V130.988H297.923ZM299.447 125.684H301.373C302.092 125.684 302.605 125.53 302.911 125.224C303.228 124.907 303.386 124.481 303.386 123.944C303.386 123.388 303.228 122.957 302.911 122.65C302.605 122.334 302.092 122.176 301.373 122.176H299.447V125.684ZM309.865 130.988V129.896C310.517 129.378 311.14 128.856 311.734 128.329C312.329 127.802 312.856 127.284 313.316 126.776C313.785 126.259 314.154 125.755 314.423 125.267C314.691 124.768 314.825 124.289 314.825 123.829C314.825 123.522 314.772 123.235 314.667 122.966C314.562 122.689 314.389 122.468 314.149 122.305C313.91 122.133 313.589 122.046 313.186 122.046C312.582 122.046 312.127 122.238 311.821 122.621C311.523 123.005 311.38 123.465 311.389 124.002H309.909C309.918 123.292 310.067 122.698 310.354 122.219C310.651 121.74 311.044 121.376 311.533 121.126C312.031 120.877 312.592 120.753 313.215 120.753C314.164 120.753 314.921 121.021 315.486 121.558C316.061 122.085 316.349 122.823 316.349 123.772C316.349 124.337 316.21 124.898 315.932 125.454C315.664 126.009 315.309 126.546 314.868 127.064C314.437 127.572 313.972 128.051 313.474 128.501C312.975 128.952 312.501 129.359 312.051 129.723H316.651V130.988H309.865Z" fill="white"/>
<rect x="393.444" y="125.973" width="76.672" height="76.672" rx="2.396" fill="white" fill-opacity="0.2"/>
<path d="M415.767 168.726V158.662H417.291V168.726H415.767ZM419.333 168.726V158.662H422.596C423.775 158.662 424.743 158.868 425.5 159.281C426.267 159.693 426.832 160.277 427.196 161.034C427.57 161.782 427.757 162.673 427.757 163.708C427.757 164.734 427.57 165.625 427.196 166.382C426.832 167.13 426.267 167.71 425.5 168.122C424.743 168.524 423.775 168.726 422.596 168.726H419.333ZM420.857 167.432H422.539C423.449 167.432 424.168 167.283 424.695 166.986C425.232 166.689 425.615 166.262 425.845 165.707C426.085 165.151 426.205 164.485 426.205 163.708C426.205 162.932 426.085 162.261 425.845 161.696C425.615 161.13 425.232 160.699 424.695 160.402C424.168 160.095 423.449 159.942 422.539 159.942H420.857V167.432ZM429.441 168.726V158.662H432.963C433.749 158.662 434.401 158.797 434.918 159.065C435.436 159.324 435.819 159.683 436.068 160.143C436.327 160.594 436.456 161.106 436.456 161.681C436.456 162.228 436.332 162.731 436.083 163.191C435.843 163.641 435.464 164.001 434.947 164.269C434.429 164.537 433.768 164.672 432.963 164.672H430.965V168.726H429.441ZM430.965 163.421H432.891C433.61 163.421 434.123 163.267 434.429 162.961C434.746 162.645 434.904 162.218 434.904 161.681C434.904 161.125 434.746 160.694 434.429 160.388C434.123 160.071 433.61 159.913 432.891 159.913H430.965V163.421ZM444.805 168.898C444.153 168.898 443.559 168.783 443.022 168.553C442.495 168.313 442.073 167.954 441.757 167.475C441.441 166.996 441.273 166.397 441.254 165.678H442.764C442.783 166.215 442.965 166.67 443.31 167.044C443.664 167.408 444.163 167.59 444.805 167.59C445.418 167.59 445.888 167.422 446.214 167.087C446.54 166.742 446.703 166.315 446.703 165.807C446.703 165.194 446.482 164.739 446.041 164.442C445.61 164.144 445.078 163.996 444.446 163.996H443.698V162.731H444.46C445.025 162.731 445.481 162.597 445.826 162.328C446.18 162.06 446.358 161.681 446.358 161.193C446.358 160.78 446.219 160.445 445.941 160.186C445.672 159.927 445.289 159.798 444.791 159.798C444.273 159.798 443.866 159.951 443.569 160.258C443.271 160.555 443.109 160.929 443.08 161.379H441.57C441.59 160.795 441.733 160.287 442.002 159.856C442.28 159.424 442.658 159.089 443.137 158.849C443.617 158.61 444.168 158.49 444.791 158.49C445.461 158.49 446.022 158.61 446.473 158.849C446.933 159.079 447.278 159.396 447.508 159.798C447.747 160.191 447.867 160.622 447.867 161.092C447.867 161.629 447.718 162.098 447.421 162.501C447.124 162.903 446.727 163.172 446.228 163.306C446.803 163.43 447.278 163.713 447.651 164.154C448.025 164.585 448.212 165.146 448.212 165.836C448.212 166.392 448.083 166.905 447.824 167.374C447.565 167.834 447.182 168.203 446.674 168.481C446.166 168.759 445.543 168.898 444.805 168.898Z" fill="white"/>
<rect x="231.714" y="243.976" width="137.081" height="132.289" rx="66.1446" fill="white"/>
<path d="M314.809 281.919C314.809 281.919 284.761 270.187 284.761 280.041C284.761 289.894 314.34 296.009 314.34 306.762C314.34 317.515 284.761 304.884 284.761 304.884" stroke="#4E61A5" stroke-width="2.81701" stroke-linecap="round"/>
<path fill-rule="evenodd" clip-rule="evenodd" d="M314.809 269.717C308.327 269.717 303.072 274.972 303.072 281.455C303.072 287.937 308.327 293.192 314.809 293.192C321.292 293.192 326.547 287.937 326.547 281.455C326.547 274.972 321.292 269.717 314.809 269.717ZM314.574 275.586C311.463 275.586 308.94 278.108 308.94 281.22V281.69C308.94 284.801 311.463 287.324 314.574 287.324H315.044C318.155 287.324 320.678 284.801 320.678 281.69V281.22C320.678 278.108 318.155 275.586 315.044 275.586H314.574Z" fill="#FFCD83"/>
<path fill-rule="evenodd" clip-rule="evenodd" d="M284.761 316.667C291.243 316.667 296.499 311.412 296.499 304.93C296.499 298.447 291.243 293.192 284.761 293.192C278.279 293.192 273.023 298.447 273.023 304.93C273.023 311.412 278.279 316.667 284.761 316.667ZM284.996 310.799C288.107 310.799 290.63 308.276 290.63 305.165V304.695C290.63 301.584 288.107 299.061 284.996 299.061H284.526C281.415 299.061 278.892 301.584 278.892 304.695V305.165C278.892 308.276 281.415 310.799 284.526 310.799H284.996Z" fill="#FFCD83"/>
<path d="M281.699 348.643C279.111 348.643 277.137 347.886 275.776 346.372C274.415 344.838 273.734 342.778 273.734 340.19C273.734 338.484 274.022 337.008 274.597 335.762C275.191 334.497 276.073 333.519 277.242 332.829C278.43 332.12 279.916 331.766 281.699 331.766C284.286 331.766 286.251 332.532 287.593 334.066C288.954 335.58 289.634 337.621 289.634 340.19C289.634 341.858 289.327 343.333 288.714 344.618C288.12 345.883 287.228 346.87 286.04 347.579C284.871 348.288 283.424 348.643 281.699 348.643ZM281.67 346.343C283.529 346.343 284.928 345.768 285.868 344.618C286.807 343.468 287.276 341.992 287.276 340.19C287.276 338.388 286.807 336.912 285.868 335.762C284.947 334.593 283.548 334.008 281.67 334.008C279.83 334.008 278.43 334.564 277.472 335.676C276.533 336.788 276.063 338.292 276.063 340.19C276.063 341.378 276.264 342.442 276.667 343.381C277.069 344.301 277.683 345.03 278.507 345.567C279.35 346.084 280.405 346.343 281.67 346.343ZM296.546 348.528C295.664 348.528 294.83 348.336 294.045 347.953C293.278 347.57 292.655 347.062 292.176 346.429C291.716 345.777 291.486 345.078 291.486 344.33H293.728C293.728 344.369 293.738 344.512 293.757 344.761C293.776 345.011 293.862 345.289 294.016 345.595C294.169 345.902 294.438 346.17 294.821 346.4C295.223 346.63 295.789 346.745 296.517 346.745C297.322 346.745 297.974 346.602 298.472 346.314C298.971 346.027 299.22 345.624 299.22 345.107C299.22 344.627 299.038 344.254 298.674 343.985C298.309 343.717 297.84 343.506 297.265 343.353C296.69 343.18 296.076 343.017 295.425 342.864C294.792 342.711 294.188 342.509 293.613 342.26C293.057 341.992 292.597 341.637 292.233 341.196C291.888 340.736 291.725 340.123 291.744 339.356C291.744 338.321 292.176 337.526 293.038 336.97C293.92 336.395 295.032 336.107 296.373 336.107C297.236 336.107 298.06 336.251 298.846 336.538C299.632 336.807 300.274 337.248 300.773 337.861C301.29 338.474 301.539 339.299 301.52 340.334H299.306C299.325 339.682 299.172 339.193 298.846 338.867C298.539 338.522 298.156 338.292 297.696 338.177C297.236 338.043 296.805 337.976 296.402 337.976C295.636 337.976 295.032 338.12 294.591 338.407C294.15 338.676 293.93 339.04 293.93 339.5C293.93 339.998 294.112 340.382 294.476 340.65C294.84 340.899 295.31 341.11 295.885 341.282C296.46 341.436 297.064 341.589 297.696 341.743C298.348 341.896 298.961 342.097 299.536 342.346C300.111 342.596 300.581 342.95 300.945 343.41C301.328 343.87 301.52 344.484 301.52 345.25C301.52 346.381 301.05 347.215 300.111 347.752C299.172 348.269 297.984 348.528 296.546 348.528ZM308.114 348.528C307.232 348.528 306.399 348.336 305.613 347.953C304.846 347.57 304.223 347.062 303.744 346.429C303.284 345.777 303.054 345.078 303.054 344.33H305.296C305.296 344.369 305.306 344.512 305.325 344.761C305.344 345.011 305.431 345.289 305.584 345.595C305.737 345.902 306.006 346.17 306.389 346.4C306.792 346.63 307.357 346.745 308.085 346.745C308.89 346.745 309.542 346.602 310.041 346.314C310.539 346.027 310.788 345.624 310.788 345.107C310.788 344.627 310.606 344.254 310.242 343.985C309.878 343.717 309.408 343.506 308.833 343.353C308.258 343.18 307.645 343.017 306.993 342.864C306.36 342.711 305.757 342.509 305.181 342.26C304.626 341.992 304.166 341.637 303.801 341.196C303.456 340.736 303.293 340.123 303.313 339.356C303.313 338.321 303.744 337.526 304.606 336.97C305.488 336.395 306.6 336.107 307.942 336.107C308.804 336.107 309.628 336.251 310.414 336.538C311.2 336.807 311.842 337.248 312.341 337.861C312.858 338.474 313.107 339.299 313.088 340.334H310.874C310.894 339.682 310.74 339.193 310.414 338.867C310.108 338.522 309.724 338.292 309.264 338.177C308.804 338.043 308.373 337.976 307.97 337.976C307.204 337.976 306.6 338.12 306.159 338.407C305.718 338.676 305.498 339.04 305.498 339.5C305.498 339.998 305.68 340.382 306.044 340.65C306.408 340.899 306.878 341.11 307.453 341.282C308.028 341.436 308.632 341.589 309.264 341.743C309.916 341.896 310.529 342.097 311.104 342.346C311.679 342.596 312.149 342.95 312.513 343.41C312.897 343.87 313.088 344.484 313.088 345.25C313.088 346.381 312.619 347.215 311.679 347.752C310.74 348.269 309.552 348.528 308.114 348.528ZM320.511 348.528C318.556 348.528 317.1 347.963 316.141 346.832C315.183 345.701 314.704 344.263 314.704 342.519C314.684 340.755 315.164 339.308 316.141 338.177C317.119 337.046 318.575 336.471 320.511 336.452C322.39 336.452 323.818 337.008 324.796 338.12C325.773 339.232 326.262 340.698 326.262 342.519C326.262 343.65 326.051 344.675 325.629 345.595C325.227 346.496 324.594 347.215 323.732 347.752C322.888 348.269 321.815 348.528 320.511 348.528ZM320.511 346.487C321.432 346.487 322.131 346.285 322.61 345.883C323.109 345.48 323.454 344.972 323.645 344.359C323.837 343.726 323.933 343.084 323.933 342.433C323.933 341.781 323.837 341.148 323.645 340.535C323.454 339.902 323.109 339.385 322.61 338.982C322.131 338.561 321.432 338.35 320.511 338.35C319.572 338.35 318.853 338.561 318.355 338.982C317.857 339.385 317.512 339.902 317.32 340.535C317.128 341.148 317.032 341.781 317.032 342.433C317.032 343.084 317.128 343.726 317.32 344.359C317.512 344.972 317.857 345.48 318.355 345.883C318.853 346.285 319.572 346.487 320.511 346.487Z" fill="#4E61A5"/>
<rect x="241.897" y="454.824" width="117.752" height="56.752" rx="2.396" fill="white" fill-opacity="0.2"/>
<path d="M261.621 490.2V484.464L256.704 475.105H258.753L262.527 482.739L266.3 475.105H268.327L263.432 484.464V490.2H261.621ZM273.248 490.459C272.242 490.459 271.336 490.229 270.531 489.769C269.726 489.309 269.086 488.662 268.612 487.828C268.152 486.98 267.922 485.988 267.922 484.852C267.922 483.717 268.159 482.732 268.633 481.898C269.108 481.05 269.747 480.396 270.552 479.936C271.372 479.476 272.285 479.246 273.291 479.246C274.297 479.246 275.203 479.476 276.008 479.936C276.813 480.396 277.446 481.05 277.906 481.898C278.38 482.732 278.617 483.717 278.617 484.852C278.617 485.988 278.38 486.98 277.906 487.828C277.431 488.662 276.784 489.309 275.965 489.769C275.16 490.229 274.254 490.459 273.248 490.459ZM273.248 488.906C273.866 488.906 274.441 488.755 274.973 488.454C275.505 488.152 275.936 487.699 276.267 487.095C276.597 486.491 276.763 485.744 276.763 484.852C276.763 483.961 276.597 483.213 276.267 482.61C275.951 482.006 275.526 481.553 274.995 481.251C274.463 480.949 273.895 480.798 273.291 480.798C272.673 480.798 272.098 480.949 271.566 481.251C271.034 481.553 270.603 482.006 270.272 482.61C269.941 483.213 269.776 483.961 269.776 484.852C269.776 485.744 269.941 486.491 270.272 487.095C270.603 487.699 271.027 488.152 271.544 488.454C272.076 488.755 272.644 488.906 273.248 488.906ZM285.039 490.459C283.774 490.459 282.768 490.078 282.02 489.316C281.272 488.54 280.899 487.354 280.899 485.758V479.504H282.71V485.564C282.71 487.792 283.623 488.906 285.449 488.906C286.383 488.906 287.152 488.576 287.756 487.914C288.374 487.239 288.683 486.283 288.683 485.046V479.504H290.495V490.2H288.856L288.726 488.281C288.396 488.957 287.9 489.489 287.239 489.877C286.592 490.265 285.858 490.459 285.039 490.459ZM293.476 490.2V479.504H295.115L295.266 481.553C295.597 480.849 296.1 480.288 296.776 479.871C297.451 479.454 298.285 479.246 299.277 479.246V481.143H298.781C298.148 481.143 297.566 481.258 297.034 481.488C296.502 481.704 296.078 482.078 295.762 482.61C295.446 483.142 295.288 483.875 295.288 484.809V490.2H293.476ZM310.575 490.459C309.684 490.459 308.943 490.308 308.354 490.006C307.764 489.704 307.326 489.302 307.038 488.799C306.751 488.295 306.607 487.749 306.607 487.16C306.607 486.067 307.024 485.226 307.858 484.637C308.692 484.047 309.827 483.753 311.265 483.753H314.155V483.623C314.155 482.689 313.91 481.984 313.421 481.51C312.933 481.021 312.279 480.777 311.459 480.777C310.755 480.777 310.144 480.956 309.626 481.316C309.123 481.661 308.807 482.171 308.677 482.847H306.823C306.895 482.071 307.153 481.416 307.599 480.885C308.059 480.353 308.627 479.95 309.303 479.677C309.978 479.389 310.697 479.246 311.459 479.246C312.954 479.246 314.076 479.648 314.823 480.453C315.585 481.244 315.966 482.301 315.966 483.623V490.2H314.349L314.241 488.281C313.939 488.885 313.493 489.402 312.904 489.834C312.329 490.251 311.553 490.459 310.575 490.459ZM310.855 488.928C311.545 488.928 312.135 488.748 312.624 488.389C313.127 488.029 313.508 487.562 313.766 486.987C314.025 486.412 314.155 485.808 314.155 485.176V485.154H311.416C310.352 485.154 309.597 485.341 309.152 485.715C308.72 486.074 308.505 486.527 308.505 487.073C308.505 487.634 308.706 488.087 309.109 488.432C309.526 488.763 310.108 488.928 310.855 488.928ZM318.683 494.944V479.504H320.322L320.495 481.273C320.84 480.755 321.329 480.288 321.961 479.871C322.608 479.454 323.427 479.246 324.419 479.246C325.483 479.246 326.41 479.49 327.201 479.979C327.992 480.468 328.603 481.136 329.034 481.984C329.48 482.832 329.703 483.796 329.703 484.874C329.703 485.952 329.48 486.915 329.034 487.763C328.603 488.597 327.985 489.259 327.18 489.747C326.389 490.222 325.462 490.459 324.398 490.459C323.521 490.459 322.737 490.279 322.047 489.92C321.372 489.56 320.854 489.057 320.495 488.41V494.944H318.683ZM324.204 488.885C324.923 488.885 325.555 488.719 326.101 488.389C326.648 488.044 327.079 487.569 327.395 486.966C327.712 486.362 327.87 485.657 327.87 484.852C327.87 484.047 327.712 483.343 327.395 482.739C327.079 482.135 326.648 481.668 326.101 481.337C325.555 480.992 324.923 480.82 324.204 480.82C323.485 480.82 322.852 480.992 322.306 481.337C321.76 481.668 321.329 482.135 321.012 482.739C320.696 483.343 320.538 484.047 320.538 484.852C320.538 485.657 320.696 486.362 321.012 486.966C321.329 487.569 321.76 488.044 322.306 488.389C322.852 488.719 323.485 488.885 324.204 488.885ZM332.224 494.944V479.504H333.863L334.035 481.273C334.38 480.755 334.869 480.288 335.502 479.871C336.149 479.454 336.968 479.246 337.96 479.246C339.024 479.246 339.951 479.49 340.742 479.979C341.533 480.468 342.143 481.136 342.575 481.984C343.02 482.832 343.243 483.796 343.243 484.874C343.243 485.952 343.02 486.915 342.575 487.763C342.143 488.597 341.525 489.259 340.72 489.747C339.93 490.222 339.002 490.459 337.939 490.459C337.062 490.459 336.278 490.279 335.588 489.92C334.912 489.56 334.395 489.057 334.035 488.41V494.944H332.224ZM337.744 488.885C338.463 488.885 339.096 488.719 339.642 488.389C340.188 488.044 340.62 487.569 340.936 486.966C341.252 486.362 341.41 485.657 341.41 484.852C341.41 484.047 341.252 483.343 340.936 482.739C340.62 482.135 340.188 481.668 339.642 481.337C339.096 480.992 338.463 480.82 337.744 480.82C337.026 480.82 336.393 480.992 335.847 481.337C335.301 481.668 334.869 482.135 334.553 482.739C334.237 483.343 334.079 484.047 334.079 484.852C334.079 485.657 334.237 486.362 334.553 486.966C334.869 487.569 335.301 488.044 335.847 488.389C336.393 488.719 337.026 488.885 337.744 488.885Z" fill="white"/>
<mask maskUnits="userSpaceOnUse" x="0" y="0" width="0" height="0" fill="black">
<rect fill="white" width="0" height="0"/>
</mask>
<path d="M390.946 209.382L384.373 211.535L389.524 216.151L390.946 209.382ZM349.546 255.582L356.119 253.429L350.968 248.813L349.546 255.582ZM386.902 212.997L352.698 251.168L353.59 251.967L387.794 213.797L386.902 212.997Z" fill="#FFCD83" mask="url(#)"/>
<mask maskUnits="userSpaceOnUse" x="0" y="0" width="0" height="0" fill="black">
<rect fill="white" width="0" height="0"/>
</mask>
<path d="M301.099 172.865L297.641 178.855L304.557 178.855L301.099 172.865ZM301.099 234.9L304.557 228.91L297.641 228.91L301.099 234.9ZM300.5 178.256L300.5 229.509L301.698 229.509L301.698 178.256L300.5 178.256Z" fill="#FFCD83" mask="url(#)"/>
<mask maskUnits="userSpaceOnUse" x="0" y="0" width="0" height="0" fill="black">
<rect fill="white" width="0" height="0"/>
</mask>
<path d="M301.099 384.064L297.641 390.054L304.557 390.054L301.099 384.064ZM301.099 446.1L304.557 440.11L297.641 440.11L301.099 446.1ZM300.5 389.455L300.5 440.709L301.698 440.709L301.698 389.455L300.5 389.455Z" fill="white" mask="url(#)"/>
<mask maskUnits="userSpaceOnUse" x="0" y="0" width="0" height="0" fill="black">
<rect fill="white" width="0" height="0"/>
</mask>
<path d="M209.454 208.182L216.027 210.335L210.876 214.951L209.454 208.182ZM250.854 254.382L244.281 252.229L249.432 247.613L250.854 254.382ZM213.498 211.797L247.702 249.967L246.81 250.767L212.606 212.597L213.498 211.797Z" fill="#FFCD83" mask="url(#)"/>
</svg>
