<svg width="81" height="81" viewBox="0 0 81 81" fill="none" xmlns="http://www.w3.org/2000/svg">
<g clip-path="url(#clip0)">
<path d="M40.5126 0.869502C37.2334 0.884741 34.1033 1.15826 31.3475 1.63674C23.231 3.04322 21.7584 5.98722 21.7584 11.4173V18.5876H40.9374V20.9777H14.56C8.98636 20.9777 4.10559 24.2638 2.5786 30.5175C0.817044 37.6832 0.739374 42.1556 2.5786 49.6383C3.9417 55.2086 7.19763 59.1765 12.772 59.1765H19.3669V50.5807C19.3669 44.3705 24.8435 38.8931 31.3483 38.8931H50.5056C55.8384 38.8931 60.0947 34.5853 60.0947 29.3327V11.4181C60.0947 6.31865 55.7095 2.48855 50.5056 1.6375C47.2093 1.0996 43.791 0.855026 40.5126 0.869502ZM30.1405 6.63636C32.1211 6.63636 33.7398 8.24931 33.7398 10.2333C33.7398 12.2089 32.1219 13.8066 30.1405 13.8066C28.1522 13.8066 26.5421 12.2089 26.5421 10.2333C26.5413 8.24931 28.1522 6.63636 30.1405 6.63636Z" fill="white" fill-opacity="0.72"/>
<path d="M62.4862 20.9778V29.3329C62.4862 35.8091 56.8877 41.2605 50.5048 41.2605H31.3476C26.1002 41.2605 21.7584 45.6666 21.7584 50.8216V68.7378C21.7584 73.8357 26.2773 76.8353 31.3476 78.2974C37.4182 80.0475 43.2404 80.3645 50.5048 78.2974C55.3328 76.9252 60.094 74.1656 60.094 68.7378V61.5668H40.9375V59.1759H69.6846C75.2582 59.1759 77.3367 55.3626 79.2753 49.6376C81.2776 43.7443 81.1914 38.0765 79.2753 30.5169C77.8975 25.0731 75.2668 20.9771 69.6846 20.9771H62.4862V20.9778ZM51.711 66.347C53.7002 66.347 55.3103 67.9447 55.3103 69.9218C55.3103 71.9043 53.6994 73.5172 51.711 73.5172C49.7305 73.5172 48.1126 71.9043 48.1126 69.9218C48.1126 67.9447 49.7305 66.347 51.711 66.347Z" fill="white"/>
</g>
<defs>
<clipPath id="clip0">
<rect width="80" height="80" fill="white" transform="translate(0.985596 0.282471)"/>
</clipPath>
</defs>
</svg>
