<svg width="89" height="78" viewBox="0 0 89 78" fill="none" xmlns="http://www.w3.org/2000/svg">
<path d="M75.284 74.5487C75.284 74.5487 79.5167 70.1865 82.9377 69.1596C86.3587 68.1327 89.0825 69.6157 86.6024 65.7302C81.9603 58.4574 74.4269 43.0306 70.6543 33.3954C71.1687 40.9075 71.143 51.6154 69.7424 56.0138C68.3419 60.4123 62.9004 66.2768 58.502 67.1999C54.1036 68.1229 35.5324 67.6885 31.6227 67.1999C27.713 66.7113 20.3823 60.901 18.9162 56.0138C17.5323 51.401 17.9387 36.4653 17.9387 29.6233C17.9387 29.6233 17.8511 33.8042 14.0636 45.1534C10.276 56.5026 7.54677 56.2583 4.28838 60.341C2.23055 62.464 -1.06198 66.8079 2.23055 67.1999C5.52308 67.5918 11.4911 72.9156 14.0636 75.5286C13.5491 73.8955 12.8289 70.3355 14.0636 69.1596C15.6069 67.6897 21.7804 67.2 23.3238 69.1596C24.8672 71.1192 33.0985 76.0186 37.2141 76.5085C41.3298 76.9985 46.9888 71.6093 50.59 70.6295C54.1912 69.6496 57.8588 74.5487 60.9456 74.5487C63.415 74.5487 65.6355 71.936 66.3214 70.6295C68.2078 69.9762 71.7857 67.5919 74.2551 69.1596C76.7245 70.7274 75.9699 73.4056 75.284 74.5487Z" fill="white" stroke="white" stroke-width="0.977428"/>
<path fill-rule="evenodd" clip-rule="evenodd" d="M35.8091 0.0251465C28.1866 0.0251465 22.0073 6.20441 22.0073 13.8269V47.8713C22.0073 55.4937 28.1866 61.673 35.8091 61.673H53.2913C60.9138 61.673 67.0931 55.4937 67.0931 47.8712V13.8269C67.0931 6.2044 60.9138 0.0251465 53.2913 0.0251465H35.8091ZM39.4912 10.1463C34.9177 10.1463 31.2102 13.8538 31.2102 18.4273V43.2705C31.2102 47.844 34.9177 51.5516 39.4912 51.5516H49.6125C54.186 51.5516 57.8936 47.844 57.8936 43.2705V18.4273C57.8936 13.8538 54.186 10.1463 49.6125 10.1463H39.4912Z" fill="white"/>
<path fill-rule="evenodd" clip-rule="evenodd" d="M46.8509 35.2127C47.9604 34.4699 48.6908 33.2051 48.6908 31.7697C48.6908 29.4829 46.8371 27.6292 44.5503 27.6292C42.2636 27.6292 40.4098 29.4829 40.4098 31.7697C40.4098 33.2054 41.1405 34.4704 42.2504 35.2132V43.2703H46.8509V35.2127Z" fill="white"/>
</svg>
